<?xml version="1.0" encoding="UTF-8" standalone="no"?>

<svg xmlns="http://www.w3.org/2000/svg" version="1.1" viewBox="0.00 0.00 1328.00 2366.00">
<g stroke-width="2.00" fill="none" stroke-linecap="butt">
<path stroke="#786553" vector-effect="non-scaling-stroke" d="&#xA;  M 867.21 245.75&#xA;  L 866.79 246.08&#xA;  A 1.99 1.92 81.8 0 0 866.19 246.91&#xA;  C 864.76 250.64 862.30 253.63 857.87 252.19&#xA;  A 2.90 2.89 10.6 0 1 855.87 249.28&#xA;  Q 856.01 246.81 857.25 245.02&#xA;  A 0.57 0.56 -19.9 0 1 858.26 245.49&#xA;  L 857.30 249.01&#xA;  A 1.86 1.85 -78.7 0 0 858.85 251.35&#xA;  C 862.76 251.86 863.92 249.11 865.23 245.88&#xA;  A 1.58 1.55 86.0 0 1 865.89 245.11&#xA;  Q 866.33 244.86 867.24 244.72&#xA;  A 0.74 0.73 -4.6 0 0 867.86 244.00&#xA;  C 867.86 237.26 861.07 240.09 858.13 242.03&#xA;  A 3.89 3.78 -0.6 0 0 857.08 243.07&#xA;  Q 851.57 251.20 843.00 257.41&#xA;  A 6.05 5.87 -0.6 0 0 841.72 258.68&#xA;  C 837.51 264.38 835.07 267.62 830.26 272.92&#xA;  A 1.84 1.69 6.3 0 1 829.77 273.28&#xA;  L 825.04 275.67&#xA;  A 0.60 0.58 58.5 0 1 824.30 275.48&#xA;  L 824.29 275.46&#xA;  A 0.65 0.64 58.5 0 1 824.49 274.61&#xA;  C 831.32 269.92 834.71 265.47 840.64 257.99&#xA;  A 10.25 9.70 -1.6 0 1 842.23 256.40&#xA;  C 848.06 251.71 853.24 245.47 858.25 239.24&#xA;  Q 858.51 238.91 858.61 238.69&#xA;  A 0.58 0.58 0.0 0 0 858.08 237.86&#xA;  Q 855.76 237.91 855.00 237.15&#xA;  A 0.45 0.45 0.0 0 1 855.33 236.38&#xA;  L 856.65 236.43&#xA;  A 2.23 2.14 -53.4 0 0 857.47 236.29&#xA;  L 871.23 231.20&#xA;  A 0.49 0.49 0.0 0 0 871.35 230.35&#xA;  Q 870.27 229.55 869.61 228.38&#xA;  A 0.14 0.14 0.0 0 1 869.64 228.21&#xA;  L 869.84 228.04&#xA;  A 0.54 0.53 49.2 0 1 870.59 228.10&#xA;  Q 871.98 229.66 873.65 228.97&#xA;  A 2.08 2.06 44.3 0 1 875.18 228.96&#xA;  C 877.98 230.04 879.58 230.88 882.74 229.77&#xA;  Q 887.97 227.92 889.84 222.95&#xA;  A 1.51 1.50 19.6 0 0 888.91 221.00&#xA;  Q 884.92 219.64 880.82 219.34&#xA;  A 5.35 5.28 -32.0 0 1 879.35 219.01&#xA;  L 876.41 217.87&#xA;  A 3.82 3.76 -41.6 0 0 874.10 217.75&#xA;  L 851.36 223.78&#xA;  A 5.82 5.78 -72.2 0 0 849.10 224.95&#xA;  L 840.27 232.45&#xA;  A 1.88 1.84 -13.1 0 0 839.69 233.36&#xA;  L 836.42 245.25&#xA;  A 0.92 0.92 0.0 0 0 837.06 246.39&#xA;  L 841.72 247.67&#xA;  A 0.39 0.38 16.3 0 1 841.99 248.15&#xA;  L 841.91 248.46&#xA;  A 0.32 0.32 0.0 0 1 841.58 248.69&#xA;  Q 838.71 248.44 836.51 247.18&#xA;  A 0.81 0.81 0.0 0 0 835.39 247.52&#xA;  Q 833.61 251.08 831.40 252.89&#xA;  A 0.50 0.49 48.1 0 1 830.73 252.85&#xA;  L 830.72 252.84&#xA;  A 0.55 0.54 46.8 0 1 830.73 252.22&#xA;  L 834.24 247.41&#xA;  A 1.27 1.25 -30.1 0 0 834.47 246.57&#xA;  Q 834.28 244.49 834.43 243.97&#xA;  Q 838.39 230.47 839.50 227.21&#xA;  A 0.62 0.61 17.4 0 0 839.08 226.42&#xA;  Q 838.64 226.29 837.93 226.56&#xA;  A 0.51 0.51 0.0 0 1 837.43 225.69&#xA;  Q 843.39 220.75 850.63 212.54&#xA;  A 8.68 8.50 5.6 0 1 852.86 210.75&#xA;  C 856.08 208.96 860.69 208.22 863.61 205.73&#xA;  Q 870.33 200.02 870.31 191.00&#xA;  A 1.13 1.13 0.0 0 0 868.57 190.06&#xA;  Q 860.66 195.17 850.86 198.30&#xA;  A 5.10 4.99 13.9 0 0 848.96 199.42&#xA;  Q 837.67 210.10 822.63 222.88&#xA;  Q 820.86 224.38 820.48 226.01&#xA;  Q 818.38 234.94 817.54 237.27&#xA;  Q 811.82 253.25 809.29 261.53&#xA;  Q 806.62 270.28 808.23 279.23&#xA;  Q 811.26 296.09 812.53 313.92&#xA;  Q 812.77 317.16 813.67 323.08&#xA;  Q 814.32 327.33 814.09 332.27&#xA;  Q 814.02 333.78 815.48 337.27&#xA;  A 1.38 1.37 47.0 0 1 815.44 338.43&#xA;  L 815.00 339.28&#xA;  A 2.57 2.55 57.7 0 0 814.71 340.58&#xA;  Q 815.24 353.15 814.79 371.02&#xA;  Q 814.69 375.09 814.17 380.19&#xA;  C 813.32 388.61 813.30 398.22 812.79 404.96&#xA;  Q 812.21 412.73 812.11 420.56&#xA;  Q 811.97 431.70 811.42 478.82&#xA;  C 811.22 495.13 811.93 509.18 814.98 523.55&#xA;  Q 816.95 532.79 819.37 538.89&#xA;  Q 823.07 548.21 829.95 557.02&#xA;  C 835.64 564.30 841.69 568.67 850.03 570.95&#xA;  Q 864.30 574.86 877.53 569.80&#xA;  C 882.51 567.90 887.77 563.82 890.12 559.70&#xA;  C 896.19 549.06 898.46 535.89 895.05 524.00&#xA;  Q 891.28 510.86 888.89 500.65&#xA;  Q 886.70 491.26 882.91 477.25&#xA;  Q 872.33 438.10 867.14 396.81&#xA;  Q 865.92 387.06 865.56 374.40&#xA;  Q 865.22 362.26 863.16 349.69&#xA;  C 862.17 343.65 862.37 337.78 861.78 331.76&#xA;  Q 861.70 330.94 862.55 330.09&#xA;  Q 863.22 329.41 863.62 328.58&#xA;  Q 867.39 320.69 868.24 319.50&#xA;  Q 871.91 314.39 874.29 308.79&#xA;  C 877.65 300.91 877.23 294.69 875.57 285.02&#xA;  Q 874.40 278.26 874.45 268.70&#xA;  A 1.23 1.22 17.2 0 0 873.90 267.66&#xA;  L 870.21 265.17&#xA;  A 0.36 0.35 -76.7 0 1 870.06 264.92&#xA;  L 869.98 264.37&#xA;  A 0.46 0.46 0.0 0 1 870.71 263.94&#xA;  L 873.09 265.75&#xA;  A 2.06 2.06 0.0 0 0 875.98 265.36&#xA;  L 882.12 257.28&#xA;  A 0.61 0.60 -54.2 0 1 882.94 257.14&#xA;  L 888.02 260.46&#xA;  A 2.18 2.12 -19.3 0 0 888.58 260.72&#xA;  C 891.83 261.68 894.92 262.46 897.21 259.55&#xA;  A 1.39 1.37 -46.3 0 0 897.18 257.81&#xA;  L 891.64 251.28&#xA;  A 1.11 1.10 -23.9 0 0 890.65 250.90&#xA;  L 887.58 251.32&#xA;  A 5.91 5.78 -41.5 0 1 885.41 251.21&#xA;  L 879.63 249.81&#xA;  A 2.59 2.54 68.7 0 1 878.83 249.45&#xA;  L 876.53 247.85&#xA;  A 1.14 1.11 -34.3 0 0 875.58 247.68&#xA;  L 870.64 248.99&#xA;  A 0.90 0.89 83.0 0 0 869.97 249.86&#xA;  Q 869.97 252.58 868.16 253.76&#xA;  A 2.79 2.78 83.9 0 0 867.10 255.08&#xA;  Q 864.95 260.55 860.97 265.92&#xA;  A 3.34 3.29 3.1 0 1 859.93 266.84&#xA;  C 854.88 269.66 852.76 275.34 852.11 281.12&#xA;  A 5.61 5.58 -47.2 0 0 852.17 282.75&#xA;  C 853.73 291.13 854.29 300.42 850.36 308.30&#xA;  A 0.73 0.73 0.0 0 1 849.56 308.69&#xA;  L 849.54 308.68&#xA;  A 0.49 0.48 17.8 0 1 849.19 308.01&#xA;  Q 850.82 304.33 851.14 301.90&#xA;  Q 852.31 293.03 850.42 282.75&#xA;  A 3.65 3.57 -44.4 0 1 850.45 281.27&#xA;  Q 851.96 274.46 853.51 271.77&#xA;  C 855.41 268.46 859.55 264.59 861.67 261.00&#xA;  C 864.30 256.55 868.04 250.47 867.84 245.82"></path>
<path stroke="#786553" vector-effect="non-scaling-stroke" d="&#xA;  M 859.33 237.62&#xA;  A 0.55 0.55 0.0 0 0 859.62 238.68&#xA;  L 864.14 237.90&#xA;  A 1.11 1.04 46.7 0 1 864.66 237.93&#xA;  Q 869.28 239.33 869.98 244.27&#xA;  Q 870.28 246.38 870.20 246.85&#xA;  A 0.54 0.54 0.0 0 0 870.84 247.47&#xA;  L 875.32 246.54&#xA;  A 0.79 0.79 0.0 0 0 875.92 245.57&#xA;  L 875.34 243.38&#xA;  A 0.41 0.40 -15.4 0 1 875.62 242.89&#xA;  L 875.92 242.81&#xA;  A 0.47 0.47 0.0 0 1 876.50 243.19&#xA;  C 877.37 248.53 880.50 247.90 884.45 249.74&#xA;  A 2.63 2.61 -39.8 0 0 886.21 249.89&#xA;  C 891.66 248.45 894.76 247.93 897.42 243.93&#xA;  A 1.65 1.65 0.0 0 0 896.43 241.40&#xA;  C 892.53 240.48 887.01 239.37 883.86 236.92&#xA;  A 3.75 3.75 0.0 0 0 882.17 236.17&#xA;  Q 877.00 235.24 872.77 232.90&#xA;  A 0.71 0.71 0.0 0 0 872.19 232.86&#xA;  L 859.33 237.62"></path>
<path stroke="#786553" vector-effect="non-scaling-stroke" d="&#xA;  M 848.77 332.41&#xA;  Q 847.12 333.06 844.68 333.06&#xA;  A 0.43 0.43 0.0 0 0 844.53 333.89&#xA;  Q 846.56 334.64 849.24 333.58&#xA;  Q 851.91 332.52 852.87 330.57&#xA;  A 0.43 0.43 0.0 0 0 852.19 330.07&#xA;  Q 850.42 331.75 848.77 332.41"></path>
</g>
<path fill="#010000" fill-opacity="0.996" d="&#xA;  M 874.28 232.61&#xA;  Q 879.32 234.06 884.05 235.12&#xA;  Q 885.11 235.36 887.04 236.85&#xA;  A 4.34 4.06 -14.6 0 0 888.24 237.50&#xA;  Q 892.16 238.90 897.07 240.39&#xA;  C 902.38 242.00 895.65 248.29 893.45 249.31&#xA;  A 1.07 1.07 0.0 0 0 893.23 251.11&#xA;  Q 896.55 253.81 898.54 257.67&#xA;  A 1.70 1.67 41.1 0 1 898.64 258.94&#xA;  Q 897.32 263.03 892.44 262.78&#xA;  Q 888.21 262.56 887.47 262.14&#xA;  A 3.07 2.96 83.6 0 1 886.71 261.51&#xA;  Q 885.27 259.82 883.50 259.07&#xA;  A 0.96 0.96 0.0 0 0 882.36 259.38&#xA;  L 876.30 267.35&#xA;  A 2.88 2.85 62.2 0 0 875.72 269.25&#xA;  Q 876.33 279.31 878.03 289.48&#xA;  Q 879.35 297.33 876.60 307.53&#xA;  Q 875.54 311.45 870.82 319.28&#xA;  Q 868.75 322.72 864.30 330.73&#xA;  A 4.29 4.26 -35.0 0 0 863.81 333.45&#xA;  Q 864.17 335.77 864.04 338.65&#xA;  C 863.70 346.33 865.77 354.92 866.32 362.89&#xA;  C 867.26 376.33 867.14 386.14 869.02 399.49&#xA;  Q 872.73 425.77 878.89 453.75&#xA;  Q 881.15 464.02 885.23 478.63&#xA;  Q 888.95 491.94 891.52 503.53&#xA;  Q 892.42 507.59 894.83 516.39&#xA;  Q 897.12 524.71 897.81 529.32&#xA;  Q 899.20 538.70 896.54 548.59&#xA;  C 895.51 552.44 893.39 556.22 891.18 561.03&#xA;  A 3.90 3.86 77.2 0 1 890.65 561.88&#xA;  Q 885.74 567.92 880.12 570.54&#xA;  C 861.48 579.25 839.26 573.58 827.36 556.62&#xA;  Q 825.40 553.83 821.75 548.18&#xA;  Q 819.18 544.20 817.48 539.02&#xA;  Q 813.96 528.25 812.80 522.49&#xA;  Q 808.90 503.12 809.09 482.99&#xA;  Q 809.18 473.28 809.68 435.50&#xA;  Q 810.00 411.76 812.08 385.88&#xA;  Q 813.04 373.98 812.97 367.08&#xA;  C 812.83 354.61 813.10 345.78 812.04 334.90&#xA;  A 6.86 6.86 0.0 0 1 812.04 333.62&#xA;  Q 812.47 328.45 812.00 322.99&#xA;  Q 809.80 297.64 805.92 272.08&#xA;  A 5.95 5.74 -48.4 0 1 805.87 270.85&#xA;  Q 806.49 262.80 808.91 255.14&#xA;  Q 812.39 244.09 817.24 232.25&#xA;  Q 818.05 230.29 819.55 223.99&#xA;  A 2.09 2.07 -16.6 0 1 820.09 223.00&#xA;  Q 831.96 210.94 846.73 199.49&#xA;  Q 847.59 198.83 848.93 197.41&#xA;  A 1.76 1.69 -77.0 0 1 849.67 196.93&#xA;  Q 859.57 193.73 868.91 188.50&#xA;  A 1.49 1.49 0.0 0 1 871.12 189.60&#xA;  L 871.89 195.34&#xA;  A 0.81 0.64 -49.6 0 1 871.88 195.61&#xA;  Q 869.31 209.36 855.57 211.76&#xA;  A 3.08 3.01 -71.2 0 0 854.03 212.54&#xA;  L 842.55 223.39&#xA;  A 2.78 2.68 -14.9 0 0 841.79 224.65&#xA;  L 840.93 227.78&#xA;  A 0.88 0.88 0.0 0 0 842.33 228.69&#xA;  L 849.32 223.03&#xA;  A 3.30 3.27 16.6 0 1 850.44 222.43&#xA;  Q 866.51 217.50 874.52 216.23&#xA;  C 876.62 215.90 878.71 217.75 880.79 218.00&#xA;  C 883.90 218.37 887.19 218.59 890.06 220.06&#xA;  A 2.13 2.12 -69.4 0 1 891.15 222.48&#xA;  C 889.64 228.37 885.14 232.34 879.02 231.38&#xA;  Q 876.14 230.93 874.28 231.49&#xA;  A 0.58 0.58 0.0 0 0 874.28 232.61&#xA;  Z&#xA;  M 867.84 245.82&#xA;  Q 867.59 245.35 867.38 245.44&#xA;  Q 867.14 245.54 867.21 245.75&#xA;  L 866.79 246.08&#xA;  A 1.99 1.92 81.8 0 0 866.19 246.91&#xA;  C 864.76 250.64 862.30 253.63 857.87 252.19&#xA;  A 2.90 2.89 10.6 0 1 855.87 249.28&#xA;  Q 856.01 246.81 857.25 245.02&#xA;  A 0.57 0.56 -19.9 0 1 858.26 245.49&#xA;  L 857.30 249.01&#xA;  A 1.86 1.85 -78.7 0 0 858.85 251.35&#xA;  C 862.76 251.86 863.92 249.11 865.23 245.88&#xA;  A 1.58 1.55 86.0 0 1 865.89 245.11&#xA;  Q 866.33 244.86 867.24 244.72&#xA;  A 0.74 0.73 -4.6 0 0 867.86 244.00&#xA;  C 867.86 237.26 861.07 240.09 858.13 242.03&#xA;  A 3.89 3.78 -0.6 0 0 857.08 243.07&#xA;  Q 851.57 251.20 843.00 257.41&#xA;  A 6.05 5.87 -0.6 0 0 841.72 258.68&#xA;  C 837.51 264.38 835.07 267.62 830.26 272.92&#xA;  A 1.84 1.69 6.3 0 1 829.77 273.28&#xA;  L 825.04 275.67&#xA;  A 0.60 0.58 58.5 0 1 824.30 275.48&#xA;  L 824.29 275.46&#xA;  A 0.65 0.64 58.5 0 1 824.49 274.61&#xA;  C 831.32 269.92 834.71 265.47 840.64 257.99&#xA;  A 10.25 9.70 -1.6 0 1 842.23 256.40&#xA;  C 848.06 251.71 853.24 245.47 858.25 239.24&#xA;  Q 858.51 238.91 858.61 238.69&#xA;  A 0.58 0.58 0.0 0 0 858.08 237.86&#xA;  Q 855.76 237.91 855.00 237.15&#xA;  A 0.45 0.45 0.0 0 1 855.33 236.38&#xA;  L 856.65 236.43&#xA;  A 2.23 2.14 -53.4 0 0 857.47 236.29&#xA;  L 871.23 231.20&#xA;  A 0.49 0.49 0.0 0 0 871.35 230.35&#xA;  Q 870.27 229.55 869.61 228.38&#xA;  A 0.14 0.14 0.0 0 1 869.64 228.21&#xA;  L 869.84 228.04&#xA;  A 0.54 0.53 49.2 0 1 870.59 228.10&#xA;  Q 871.98 229.66 873.65 228.97&#xA;  A 2.08 2.06 44.3 0 1 875.18 228.96&#xA;  C 877.98 230.04 879.58 230.88 882.74 229.77&#xA;  Q 887.97 227.92 889.84 222.95&#xA;  A 1.51 1.50 19.6 0 0 888.91 221.00&#xA;  Q 884.92 219.64 880.82 219.34&#xA;  A 5.35 5.28 -32.0 0 1 879.35 219.01&#xA;  L 876.41 217.87&#xA;  A 3.82 3.76 -41.6 0 0 874.10 217.75&#xA;  L 851.36 223.78&#xA;  A 5.82 5.78 -72.2 0 0 849.10 224.95&#xA;  L 840.27 232.45&#xA;  A 1.88 1.84 -13.1 0 0 839.69 233.36&#xA;  L 836.42 245.25&#xA;  A 0.92 0.92 0.0 0 0 837.06 246.39&#xA;  L 841.72 247.67&#xA;  A 0.39 0.38 16.3 0 1 841.99 248.15&#xA;  L 841.91 248.46&#xA;  A 0.32 0.32 0.0 0 1 841.58 248.69&#xA;  Q 838.71 248.44 836.51 247.18&#xA;  A 0.81 0.81 0.0 0 0 835.39 247.52&#xA;  Q 833.61 251.08 831.40 252.89&#xA;  A 0.50 0.49 48.1 0 1 830.73 252.85&#xA;  L 830.72 252.84&#xA;  A 0.55 0.54 46.8 0 1 830.73 252.22&#xA;  L 834.24 247.41&#xA;  A 1.27 1.25 -30.1 0 0 834.47 246.57&#xA;  Q 834.28 244.49 834.43 243.97&#xA;  Q 838.39 230.47 839.50 227.21&#xA;  A 0.62 0.61 17.4 0 0 839.08 226.42&#xA;  Q 838.64 226.29 837.93 226.56&#xA;  A 0.51 0.51 0.0 0 1 837.43 225.69&#xA;  Q 843.39 220.75 850.63 212.54&#xA;  A 8.68 8.50 5.6 0 1 852.86 210.75&#xA;  C 856.08 208.96 860.69 208.22 863.61 205.73&#xA;  Q 870.33 200.02 870.31 191.00&#xA;  A 1.13 1.13 0.0 0 0 868.57 190.06&#xA;  Q 860.66 195.17 850.86 198.30&#xA;  A 5.10 4.99 13.9 0 0 848.96 199.42&#xA;  Q 837.67 210.10 822.63 222.88&#xA;  Q 820.86 224.38 820.48 226.01&#xA;  Q 818.38 234.94 817.54 237.27&#xA;  Q 811.82 253.25 809.29 261.53&#xA;  Q 806.62 270.28 808.23 279.23&#xA;  Q 811.26 296.09 812.53 313.92&#xA;  Q 812.77 317.16 813.67 323.08&#xA;  Q 814.32 327.33 814.09 332.27&#xA;  Q 814.02 333.78 815.48 337.27&#xA;  A 1.38 1.37 47.0 0 1 815.44 338.43&#xA;  L 815.00 339.28&#xA;  A 2.57 2.55 57.7 0 0 814.71 340.58&#xA;  Q 815.24 353.15 814.79 371.02&#xA;  Q 814.69 375.09 814.17 380.19&#xA;  C 813.32 388.61 813.30 398.22 812.79 404.96&#xA;  Q 812.21 412.73 812.11 420.56&#xA;  Q 811.97 431.70 811.42 478.82&#xA;  C 811.22 495.13 811.93 509.18 814.98 523.55&#xA;  Q 816.95 532.79 819.37 538.89&#xA;  Q 823.07 548.21 829.95 557.02&#xA;  C 835.64 564.30 841.69 568.67 850.03 570.95&#xA;  Q 864.30 574.86 877.53 569.80&#xA;  C 882.51 567.90 887.77 563.82 890.12 559.70&#xA;  C 896.19 549.06 898.46 535.89 895.05 524.00&#xA;  Q 891.28 510.86 888.89 500.65&#xA;  Q 886.70 491.26 882.91 477.25&#xA;  Q 872.33 438.10 867.14 396.81&#xA;  Q 865.92 387.06 865.56 374.40&#xA;  Q 865.22 362.26 863.16 349.69&#xA;  C 862.17 343.65 862.37 337.78 861.78 331.76&#xA;  Q 861.70 330.94 862.55 330.09&#xA;  Q 863.22 329.41 863.62 328.58&#xA;  Q 867.39 320.69 868.24 319.50&#xA;  Q 871.91 314.39 874.29 308.79&#xA;  C 877.65 300.91 877.23 294.69 875.57 285.02&#xA;  Q 874.40 278.26 874.45 268.70&#xA;  A 1.23 1.22 17.2 0 0 873.90 267.66&#xA;  L 870.21 265.17&#xA;  A 0.36 0.35 -76.7 0 1 870.06 264.92&#xA;  L 869.98 264.37&#xA;  A 0.46 0.46 0.0 0 1 870.71 263.94&#xA;  L 873.09 265.75&#xA;  A 2.06 2.06 0.0 0 0 875.98 265.36&#xA;  L 882.12 257.28&#xA;  A 0.61 0.60 -54.2 0 1 882.94 257.14&#xA;  L 888.02 260.46&#xA;  A 2.18 2.12 -19.3 0 0 888.58 260.72&#xA;  C 891.83 261.68 894.92 262.46 897.21 259.55&#xA;  A 1.39 1.37 -46.3 0 0 897.18 257.81&#xA;  L 891.64 251.28&#xA;  A 1.11 1.10 -23.9 0 0 890.65 250.90&#xA;  L 887.58 251.32&#xA;  A 5.91 5.78 -41.5 0 1 885.41 251.21&#xA;  L 879.63 249.81&#xA;  A 2.59 2.54 68.7 0 1 878.83 249.45&#xA;  L 876.53 247.85&#xA;  A 1.14 1.11 -34.3 0 0 875.58 247.68&#xA;  L 870.64 248.99&#xA;  A 0.90 0.89 83.0 0 0 869.97 249.86&#xA;  Q 869.97 252.58 868.16 253.76&#xA;  A 2.79 2.78 83.9 0 0 867.10 255.08&#xA;  Q 864.95 260.55 860.97 265.92&#xA;  A 3.34 3.29 3.1 0 1 859.93 266.84&#xA;  C 854.88 269.66 852.76 275.34 852.11 281.12&#xA;  A 5.61 5.58 -47.2 0 0 852.17 282.75&#xA;  C 853.73 291.13 854.29 300.42 850.36 308.30&#xA;  A 0.73 0.73 0.0 0 1 849.56 308.69&#xA;  L 849.54 308.68&#xA;  A 0.49 0.48 17.8 0 1 849.19 308.01&#xA;  Q 850.82 304.33 851.14 301.90&#xA;  Q 852.31 293.03 850.42 282.75&#xA;  A 3.65 3.57 -44.4 0 1 850.45 281.27&#xA;  Q 851.96 274.46 853.51 271.77&#xA;  C 855.41 268.46 859.55 264.59 861.67 261.00&#xA;  C 864.30 256.55 868.04 250.47 867.84 245.82&#xA;  Z&#xA;  M 859.33 237.62&#xA;  A 0.55 0.55 0.0 0 0 859.62 238.68&#xA;  L 864.14 237.90&#xA;  A 1.11 1.04 46.7 0 1 864.66 237.93&#xA;  Q 869.28 239.33 869.98 244.27&#xA;  Q 870.28 246.38 870.20 246.85&#xA;  A 0.54 0.54 0.0 0 0 870.84 247.47&#xA;  L 875.32 246.54&#xA;  A 0.79 0.79 0.0 0 0 875.92 245.57&#xA;  L 875.34 243.38&#xA;  A 0.41 0.40 -15.4 0 1 875.62 242.89&#xA;  L 875.92 242.81&#xA;  A 0.47 0.47 0.0 0 1 876.50 243.19&#xA;  C 877.37 248.53 880.50 247.90 884.45 249.74&#xA;  A 2.63 2.61 -39.8 0 0 886.21 249.89&#xA;  C 891.66 248.45 894.76 247.93 897.42 243.93&#xA;  A 1.65 1.65 0.0 0 0 896.43 241.40&#xA;  C 892.53 240.48 887.01 239.37 883.86 236.92&#xA;  A 3.75 3.75 0.0 0 0 882.17 236.17&#xA;  Q 877.00 235.24 872.77 232.90&#xA;  A 0.71 0.71 0.0 0 0 872.19 232.86&#xA;  L 859.33 237.62&#xA;  Z"></path>
<g>
<path fill="#eecaa5" d="&#xA;  M 867.21 245.75&#xA;  L 867.84 245.82&#xA;  C 868.04 250.47 864.30 256.55 861.67 261.00&#xA;  C 859.55 264.59 855.41 268.46 853.51 271.77&#xA;  Q 851.96 274.46 850.45 281.27&#xA;  A 3.65 3.57 -44.4 0 0 850.42 282.75&#xA;  Q 852.31 293.03 851.14 301.90&#xA;  Q 850.82 304.33 849.19 308.01&#xA;  A 0.49 0.48 17.8 0 0 849.54 308.68&#xA;  L 849.56 308.69&#xA;  A 0.73 0.73 0.0 0 0 850.36 308.30&#xA;  C 854.29 300.42 853.73 291.13 852.17 282.75&#xA;  A 5.61 5.58 -47.2 0 1 852.11 281.12&#xA;  C 852.76 275.34 854.88 269.66 859.93 266.84&#xA;  A 3.34 3.29 3.1 0 0 860.97 265.92&#xA;  Q 864.95 260.55 867.10 255.08&#xA;  A 2.79 2.78 83.9 0 1 868.16 253.76&#xA;  Q 869.97 252.58 869.97 249.86&#xA;  A 0.90 0.89 83.0 0 1 870.64 248.99&#xA;  L 875.58 247.68&#xA;  A 1.14 1.11 -34.3 0 1 876.53 247.85&#xA;  L 878.83 249.45&#xA;  A 2.59 2.54 68.7 0 0 879.63 249.81&#xA;  L 885.41 251.21&#xA;  A 5.91 5.78 -41.5 0 0 887.58 251.32&#xA;  L 890.65 250.90&#xA;  A 1.11 1.10 -23.9 0 1 891.64 251.28&#xA;  L 897.18 257.81&#xA;  A 1.39 1.37 -46.3 0 1 897.21 259.55&#xA;  C 894.92 262.46 891.83 261.68 888.58 260.72&#xA;  A 2.18 2.12 -19.3 0 1 888.02 260.46&#xA;  L 882.94 257.14&#xA;  A 0.61 0.60 -54.2 0 0 882.12 257.28&#xA;  L 875.98 265.36&#xA;  A 2.06 2.06 0.0 0 1 873.09 265.75&#xA;  L 870.71 263.94&#xA;  A 0.46 0.46 0.0 0 0 869.98 264.37&#xA;  L 870.06 264.92&#xA;  A 0.36 0.35 -76.7 0 0 870.21 265.17&#xA;  L 873.90 267.66&#xA;  A 1.23 1.22 17.2 0 1 874.45 268.70&#xA;  Q 874.40 278.26 875.57 285.02&#xA;  C 877.23 294.69 877.65 300.91 874.29 308.79&#xA;  Q 871.91 314.39 868.24 319.50&#xA;  Q 867.39 320.69 863.62 328.58&#xA;  Q 863.22 329.41 862.55 330.09&#xA;  Q 861.70 330.94 861.78 331.76&#xA;  C 862.37 337.78 862.17 343.65 863.16 349.69&#xA;  Q 865.22 362.26 865.56 374.40&#xA;  Q 865.92 387.06 867.14 396.81&#xA;  Q 872.33 438.10 882.91 477.25&#xA;  Q 886.70 491.26 888.89 500.65&#xA;  Q 891.28 510.86 895.05 524.00&#xA;  C 898.46 535.89 896.19 549.06 890.12 559.70&#xA;  C 887.77 563.82 882.51 567.90 877.53 569.80&#xA;  Q 864.30 574.86 850.03 570.95&#xA;  C 841.69 568.67 835.64 564.30 829.95 557.02&#xA;  Q 823.07 548.21 819.37 538.89&#xA;  Q 816.95 532.79 814.98 523.55&#xA;  C 811.93 509.18 811.22 495.13 811.42 478.82&#xA;  Q 811.97 431.70 812.11 420.56&#xA;  Q 812.21 412.73 812.79 404.96&#xA;  C 813.30 398.22 813.32 388.61 814.17 380.19&#xA;  Q 814.69 375.09 814.79 371.02&#xA;  Q 815.24 353.15 814.71 340.58&#xA;  A 2.57 2.55 57.7 0 1 815.00 339.28&#xA;  L 815.44 338.43&#xA;  A 1.38 1.37 47.0 0 0 815.48 337.27&#xA;  Q 814.02 333.78 814.09 332.27&#xA;  Q 814.32 327.33 813.67 323.08&#xA;  Q 812.77 317.16 812.53 313.92&#xA;  Q 811.26 296.09 808.23 279.23&#xA;  Q 806.62 270.28 809.29 261.53&#xA;  Q 811.82 253.25 817.54 237.27&#xA;  Q 818.38 234.94 820.48 226.01&#xA;  Q 820.86 224.38 822.63 222.88&#xA;  Q 837.67 210.10 848.96 199.42&#xA;  A 5.10 4.99 13.9 0 1 850.86 198.30&#xA;  Q 860.66 195.17 868.57 190.06&#xA;  A 1.13 1.13 0.0 0 1 870.31 191.00&#xA;  Q 870.33 200.02 863.61 205.73&#xA;  C 860.69 208.22 856.08 208.96 852.86 210.75&#xA;  A 8.68 8.50 5.6 0 0 850.63 212.54&#xA;  Q 843.39 220.75 837.43 225.69&#xA;  A 0.51 0.51 0.0 0 0 837.93 226.56&#xA;  Q 838.64 226.29 839.08 226.42&#xA;  A 0.62 0.61 17.4 0 1 839.50 227.21&#xA;  Q 838.39 230.47 834.43 243.97&#xA;  Q 834.28 244.49 834.47 246.57&#xA;  A 1.27 1.25 -30.1 0 1 834.24 247.41&#xA;  L 830.73 252.22&#xA;  A 0.55 0.54 46.8 0 0 830.72 252.84&#xA;  L 830.73 252.85&#xA;  A 0.50 0.49 48.1 0 0 831.40 252.89&#xA;  Q 833.61 251.08 835.39 247.52&#xA;  A 0.81 0.81 0.0 0 1 836.51 247.18&#xA;  Q 838.71 248.44 841.58 248.69&#xA;  A 0.32 0.32 0.0 0 0 841.91 248.46&#xA;  L 841.99 248.15&#xA;  A 0.39 0.38 16.3 0 0 841.72 247.67&#xA;  L 837.06 246.39&#xA;  A 0.92 0.92 0.0 0 1 836.42 245.25&#xA;  L 839.69 233.36&#xA;  A 1.88 1.84 -13.1 0 1 840.27 232.45&#xA;  L 849.10 224.95&#xA;  A 5.82 5.78 -72.2 0 1 851.36 223.78&#xA;  L 874.10 217.75&#xA;  A 3.82 3.76 -41.6 0 1 876.41 217.87&#xA;  L 879.35 219.01&#xA;  A 5.35 5.28 -32.0 0 0 880.82 219.34&#xA;  Q 884.92 219.64 888.91 221.00&#xA;  A 1.51 1.50 19.6 0 1 889.84 222.95&#xA;  Q 887.97 227.92 882.74 229.77&#xA;  C 879.58 230.88 877.98 230.04 875.18 228.96&#xA;  A 2.08 2.06 44.3 0 0 873.65 228.97&#xA;  Q 871.98 229.66 870.59 228.10&#xA;  A 0.54 0.53 49.2 0 0 869.84 228.04&#xA;  L 869.64 228.21&#xA;  A 0.14 0.14 0.0 0 0 869.61 228.38&#xA;  Q 870.27 229.55 871.35 230.35&#xA;  A 0.49 0.49 0.0 0 1 871.23 231.20&#xA;  L 857.47 236.29&#xA;  A 2.23 2.14 -53.4 0 1 856.65 236.43&#xA;  L 855.33 236.38&#xA;  A 0.45 0.45 0.0 0 0 855.00 237.15&#xA;  Q 855.76 237.91 858.08 237.86&#xA;  A 0.58 0.58 0.0 0 1 858.61 238.69&#xA;  Q 858.51 238.91 858.25 239.24&#xA;  C 853.24 245.47 848.06 251.71 842.23 256.40&#xA;  A 10.25 9.70 -1.6 0 0 840.64 257.99&#xA;  C 834.71 265.47 831.32 269.92 824.49 274.61&#xA;  A 0.65 0.64 58.5 0 0 824.29 275.46&#xA;  L 824.30 275.48&#xA;  A 0.60 0.58 58.5 0 0 825.04 275.67&#xA;  L 829.77 273.28&#xA;  A 1.84 1.69 6.3 0 0 830.26 272.92&#xA;  C 835.07 267.62 837.51 264.38 841.72 258.68&#xA;  A 6.05 5.87 -0.6 0 1 843.00 257.41&#xA;  Q 851.57 251.20 857.08 243.07&#xA;  A 3.89 3.78 -0.6 0 1 858.13 242.03&#xA;  C 861.07 240.09 867.86 237.26 867.86 244.00&#xA;  A 0.74 0.73 -4.6 0 1 867.24 244.72&#xA;  Q 866.33 244.86 865.89 245.11&#xA;  A 1.58 1.55 86.0 0 0 865.23 245.88&#xA;  C 863.92 249.11 862.76 251.86 858.85 251.35&#xA;  A 1.86 1.85 -78.7 0 1 857.30 249.01&#xA;  L 858.26 245.49&#xA;  A 0.57 0.56 -19.9 0 0 857.25 245.02&#xA;  Q 856.01 246.81 855.87 249.28&#xA;  A 2.90 2.89 10.6 0 0 857.87 252.19&#xA;  C 862.30 253.63 864.76 250.64 866.19 246.91&#xA;  A 1.99 1.92 81.8 0 1 866.79 246.08&#xA;  L 867.21 245.75&#xA;  Z&#xA;  M 848.77 332.41&#xA;  Q 847.12 333.06 844.68 333.06&#xA;  A 0.43 0.43 0.0 0 0 844.53 333.89&#xA;  Q 846.56 334.64 849.24 333.58&#xA;  Q 851.91 332.52 852.87 330.57&#xA;  A 0.43 0.43 0.0 0 0 852.19 330.07&#xA;  Q 850.42 331.75 848.77 332.41&#xA;  Z"></path>
<path fill="#eecaa5" d="&#xA;  M 859.33 237.62&#xA;  L 872.19 232.86&#xA;  A 0.71 0.71 0.0 0 1 872.77 232.90&#xA;  Q 877.00 235.24 882.17 236.17&#xA;  A 3.75 3.75 0.0 0 1 883.86 236.92&#xA;  C 887.01 239.37 892.53 240.48 896.43 241.40&#xA;  A 1.65 1.65 0.0 0 1 897.42 243.93&#xA;  C 894.76 247.93 891.66 248.45 886.21 249.89&#xA;  A 2.63 2.61 -39.8 0 1 884.45 249.74&#xA;  C 880.50 247.90 877.37 248.53 876.50 243.19&#xA;  A 0.47 0.47 0.0 0 0 875.92 242.81&#xA;  L 875.62 242.89&#xA;  A 0.41 0.40 -15.4 0 0 875.34 243.38&#xA;  L 875.92 245.57&#xA;  A 0.79 0.79 0.0 0 1 875.32 246.54&#xA;  L 870.84 247.47&#xA;  A 0.54 0.54 0.0 0 1 870.20 246.85&#xA;  Q 870.28 246.38 869.98 244.27&#xA;  Q 869.28 239.33 864.66 237.93&#xA;  A 1.11 1.04 46.7 0 0 864.14 237.90&#xA;  L 859.62 238.68&#xA;  A 0.55 0.55 0.0 0 1 859.33 237.62&#xA;  Z"></path>
</g>
<path fill="#010000" fill-opacity="0.996" d="&#xA;  M 849.24 333.58&#xA;  Q 846.56 334.64 844.53 333.89&#xA;  A 0.43 0.43 0.0 0 1 844.68 333.06&#xA;  Q 847.12 333.06 848.77 332.41&#xA;  Q 850.42 331.75 852.19 330.07&#xA;  A 0.43 0.43 0.0 0 1 852.87 330.57&#xA;  Q 851.91 332.52 849.24 333.58&#xA;  Z"></path>
</svg>